<?xml version="1.0" encoding="utf-8"?>
<!-- Generator: Adobe Illustrator 25.0.1, SVG Export Plug-In . SVG Version: 6.00 Build 0)  -->
<svg version="1.1" id="Camada_1" xmlns="http://www.w3.org/2000/svg" xmlns:xlink="http://www.w3.org/1999/xlink" x="0px" y="0px"
	 viewBox="0 0 672.3 97.5" style="enable-background:new 0 0 672.3 97.5;" xml:space="preserve">
<style type="text/css">
	.st0{fill-rule:evenodd;clip-rule:evenodd;fill:#005BAA;}
	.st1{fill-rule:evenodd;clip-rule:evenodd;fill:#EE3134;}
</style>
<g>
	<polygon class="st0" points="0,12.2 61.4,12.2 61.4,29.1 26.1,29.1 26.1,39 59.9,39 59.9,55.6 26.1,55.6 26.1,66 62.1,66 
		62.1,82.8 0,82.8 	"/>
	<polygon class="st0" points="457.9,12.2 519.3,12.2 519.3,29.1 484,29.1 484,39 517.8,39 517.8,55.6 484,55.6 484,66 520,66 
		520,82.8 457.9,82.8 	"/>
	<polygon class="st0" points="65.1,12.2 96.4,12.4 106.9,33.5 118.1,12.2 146.7,12.2 123,46.3 148.5,82.8 117.1,82.8 103.9,59 
		91.4,82.8 62,82.8 87.4,46.3 	"/>
	<polygon class="st0" points="452.1,12.2 452.1,34.3 418.7,64.4 453.3,64.4 453.3,82.8 388.2,82.8 388.2,60.9 422.8,30.1 
		389.5,30.1 389.5,12.2 	"/>
	<path class="st0" d="M550.9,54.2V69h7.4c3.5,0,6.1-0.7,7.7-2.1c1.6-1.4,2.4-3.2,2.4-5.3c0-1.5-0.4-2.9-1.2-4.1
		c-0.8-1.2-1.8-2-3.2-2.5c-1.3-0.5-3.3-0.7-5.9-0.7H550.9L550.9,54.2z M550.9,26.2v14h7.9c3.2,0,5.5-0.6,6.9-1.9
		c1.4-1.3,2.1-2.9,2.1-5c0-1.5-0.4-2.8-1.2-4c-0.8-1.2-1.9-2-3.3-2.5c-1.4-0.5-3.3-0.7-5.8-0.7H550.9L550.9,26.2z M525.5,12.2h44.9
		c3.6,0,6.4,0.2,8.6,0.6c3.4,0.7,6.2,1.8,8.5,3.3c2.3,1.5,4,3.5,5.2,5.9c1.2,2.4,1.8,5.2,1.8,8.4c0,3.3-0.7,6.1-2,8.4
		c-1.4,2.3-3.3,4.3-5.9,5.8c-1.7,1-3.9,1.9-6.7,2.7c5.2,0.8,9.1,2.7,11.8,5.7c2.7,3,4.1,6.8,4.1,11.4c0,4-1.1,7.4-3.3,10.4
		c-2.2,3-5,4.9-8.4,5.9c-4.7,1.3-9.6,2-14.6,2h-43.9V12.2z"/>
	<path class="st0" d="M601.8,11.3H629v44c0,2.4,0.2,4.3,0.6,5.5c0.6,1.6,1.5,2.9,2.9,3.8c1.4,0.9,3.1,1.4,5.1,1.4
		c2.6,0,4.7-0.8,6.2-2.4c1.5-1.6,2.3-4.2,2.3-7.8V11.3h26.1v42.2c0,5.7-0.7,10.3-2.1,13.9c-1.5,3.6-3.7,6.8-6.8,9.4
		c-3.1,2.6-6.9,4.5-11.5,5.6c-4.6,1.1-9.4,1.7-14.4,1.7c-5.7,0-10.8-0.6-15.4-1.8c-3-0.8-5.9-2-8.6-3.8c-2.7-1.7-4.9-3.6-6.4-5.5
		c-1.5-1.9-2.8-4.4-3.9-7.4c-1-3-1.5-6.9-1.5-11.8V11.3z"/>
	<path class="st0" d="M176.9,28.7v17.5h7.4c4.1,0,7-0.8,8.8-2.5c1.8-1.6,2.8-3.8,2.8-6.6c0-2.7-0.8-4.8-2.4-6.3
		c-1.6-1.5-4.1-2.2-7.6-2.2H176.9L176.9,28.7z M150.4,12.2h46.1c5,0,9.1,0.7,12.3,2c4.2,1.7,7.7,4.4,10.3,8.2c2.7,3.8,4,8.7,4,14.6
		c0,3.8-0.5,7-1.5,9.7c-1,2.6-2.2,4.9-3.7,6.8c-1.5,1.9-3.1,3.5-4.9,4.7c-1.8,1.2-4.1,2.2-6.8,3c-2.7,0.8-6.1,1.1-10.1,1.1h-18.5
		v20.5h-27.2V12.2z"/>
	<path class="st0" d="M304.2,97.5c-4.3,0-7.6-2.6-9.4-5.6l-22.9-39.1l-0.1-0.2c-3.6-5-9.4-8.3-16-8.3c-10.8,0-19.6,8.8-19.6,19.6
		c0,10.8,8.8,19.6,19.6,19.6c7.5,0,7.5,11.2,0,11.2c-17,0-30.8-13.8-30.8-30.8c0-17,13.8-30.8,30.8-30.8c1.7,0,3.4,0.1,5.1,0.4
		l-8.7-15.1c-6.9-10.1,0-18.8,10-18.4h84.2c10-0.4,16.8,8.2,10,18.4l-8.7,15.1c1.6-0.3,3.3-0.4,5.1-0.4c17,0,30.8,13.8,30.8,30.8
		c0,17-13.8,30.8-30.8,30.8c-7.5,0-7.5-11.2,0-11.2c10.8,0,19.6-8.8,19.6-19.6c0-10.8-8.8-19.6-19.6-19.6c-6.6,0-12.4,3.2-16,8.3
		l-0.1,0.2l-22.9,39.1C311.8,95,308.5,97.5,304.2,97.5L304.2,97.5z M304.2,11.2h-42.9l42.9,74.4l42.9-74.4H304.2z"/>
	<polygon class="st1" points="265.9,13.9 304.2,80.3 342.5,13.9 	"/>
</g>
</svg>
