<svg xmlns="http://www.w3.org/2000/svg" viewBox="0 0 1440 320"><path fill="#1e1c52" fill-opacity="1" d="M0,128L30,117.3C60,107,120,85,180,90.7C240,96,300,128,360,149.3C420,171,480,181,540,197.3C600,213,660,235,720,213.3C780,192,840,128,900,138.7C960,149,1020,235,1080,229.3C1140,224,1200,128,1260,101.3C1320,75,1380,117,1410,138.7L1440,160L1440,320L1410,320C1380,320,1320,320,1260,320C1200,320,1140,320,1080,320C1020,320,960,320,900,320C840,320,780,320,720,320C660,320,600,320,540,320C480,320,420,320,360,320C300,320,240,320,180,320C120,320,60,320,30,320L0,320Z"></path></svg>